<?xml version="1.0" encoding="UTF-8"?>
<svg xmlns="http://www.w3.org/2000/svg" xmlns:xlink="http://www.w3.org/1999/xlink" viewBox="0 0 100 100" width="100px" height="100px">
<g id="surface4262588">
<path style=" stroke:none;fill-rule:nonzero;fill:rgb(12.156863%,40.392157%,96.470588%);fill-opacity:1;" d="M 28 7.980469 C 16.976562 7.980469 8 16.957031 8 27.980469 L 8 71.980469 C 8 83.003906 16.976562 91.980469 28 91.980469 L 72 91.980469 C 83.023438 91.980469 92 83.003906 92 71.980469 L 92 27.980469 C 92 16.957031 83.023438 7.980469 72 7.980469 Z M 36.011719 24.066406 C 37.269531 24.121094 38.421875 24.828125 39.117188 25.914062 C 39.910156 27.148438 41.136719 29.066406 42.738281 31.570312 C 44.199219 33.851562 44.300781 36.800781 42.996094 39.179688 L 40.066406 43.347656 C 39.273438 44.476562 39.117188 45.917969 39.648438 47.191406 C 40.476562 49.171875 42.082031 52.214844 44.933594 55.066406 C 47.785156 57.917969 50.828125 59.523438 52.808594 60.351562 C 54.082031 60.882812 55.523438 60.726562 56.652344 59.933594 L 60.820312 57.003906 C 63.199219 55.699219 66.148438 55.804688 68.429688 57.261719 C 70.933594 58.863281 72.851562 60.089844 74.085938 60.882812 C 75.171875 61.578125 75.878906 62.730469 75.933594 63.988281 C 76.242188 71.117188 70.71875 74.003906 69.113281 74.003906 C 68 74.003906 54.632812 75.523438 39.554688 60.445312 C 24.476562 45.367188 25.996094 32 25.996094 30.886719 C 25.996094 29.28125 28.882812 23.757812 36.011719 24.066406 Z M 36.011719 24.066406 "/>
</g>
</svg>
